<svg width="206" height="44" viewBox="0 0 206 44" fill="none" xmlns="http://www.w3.org/2000/svg">
<path d="M40.344 33.668C41.208 33.668 42.072 33.272 43.008 32.372L43.008 25.46C39.264 27.08 38.22 28.7 38.22 30.932C38.22 32.876 39.156 33.668 40.344 33.668ZM46.14 35.396C44.664 35.396 43.476 34.568 43.116 32.948C41.64 34.712 39.984 35.504 38.184 35.504C35.952 35.504 34.08 34.064 34.08 31.76C34.08 29.456 35.7 27.332 43.008 24.92L43.008 22.4C43.008 19.736 42.252 18.656 40.812 18.656C39.624 18.656 39.048 19.448 38.688 21.68C38.472 23.012 37.716 23.804 36.636 23.804C35.52 23.804 34.8 23.012 34.8 21.932C34.8 19.916 37.104 18.152 40.92 18.152C45.096 18.152 46.932 20.06 46.932 23.624L46.932 31.184C46.932 32.876 47.328 33.56 48.156 33.56C48.84 33.56 49.308 33.128 49.92 32.192L50.244 32.408C48.984 34.604 47.616 35.396 46.14 35.396ZM66.7866 19.412L62.6106 19.412L62.6106 30.536C62.6106 32.372 63.2226 33.092 64.3026 33.092C65.1666 33.092 66.0666 32.624 66.8946 31.436L67.2186 31.652C65.5626 34.46 63.6546 35.504 62.1066 35.504C59.9826 35.504 58.6866 33.704 58.6866 31.436L58.6866 19.412L56.1306 19.412L56.1306 18.98C58.8666 18.26 61.1706 15.524 62.1066 11.744L62.6106 11.744L62.6106 18.764L66.7866 18.764L66.7866 19.412ZM88.0814 30.104C86.9294 33.848 84.4454 35.504 81.4934 35.504C77.2094 35.504 74.0414 31.904 74.0414 27.152C74.0414 21.716 77.9654 18.152 81.7094 18.152C85.0574 18.152 88.1174 20.564 88.2614 24.848L77.3534 24.848L77.3534 25.244C77.3534 29.384 79.7654 32.408 83.2574 32.408C85.1294 32.408 86.6774 31.616 87.7214 29.96L88.0814 30.104ZM81.2054 18.8C79.1894 18.8 77.6414 20.852 77.3894 24.2L84.3014 24.2C84.1934 20.276 82.9694 18.8 81.2054 18.8ZM105.106 35.504C102.766 35.504 100.858 34.316 99.7783 32.264L98.3023 35.288L97.9423 35.288L97.9423 13.112C97.9423 10.736 96.7183 10.16 95.0983 10.232L95.0983 9.90798L101.578 7.99998L101.866 8.10798L101.866 21.68C102.982 19.628 105.106 18.152 107.302 18.152C110.506 18.152 113.206 21.32 113.206 26C113.206 31.544 109.21 35.504 105.106 35.504ZM105.034 34.964C107.302 34.964 109.21 32.552 109.21 27.764C109.21 23.156 107.482 20.924 104.998 20.924C103.81 20.924 102.766 21.428 101.866 22.688L101.866 30.824C101.866 34.136 103.702 34.964 105.034 34.964ZM130.032 35L121.068 35L121.068 34.676C122.4 34.568 123.732 33.992 123.732 31.616L123.732 23.336C123.732 21.032 122.544 20.348 120.852 20.456L120.852 20.132L127.296 18.224L127.584 18.332L127.584 22.436C128.988 19.808 130.932 18.08 132.624 18.08C133.956 18.08 134.748 19.052 134.748 20.24C134.748 21.428 133.92 22.4 132.768 22.4C131.436 22.4 130.824 20.96 129.888 20.96C129.096 20.96 128.268 22.004 127.656 23.444L127.656 31.436C127.656 33.812 128.592 34.604 130.032 34.712L130.032 35ZM155.459 30.104C154.307 33.848 151.823 35.504 148.871 35.504C144.587 35.504 141.419 31.904 141.419 27.152C141.419 21.716 145.343 18.152 149.087 18.152C152.435 18.152 155.495 20.564 155.639 24.848L144.731 24.848L144.731 25.244C144.731 29.384 147.143 32.408 150.635 32.408C152.507 32.408 154.055 31.616 155.099 29.96L155.459 30.104ZM148.583 18.8C146.567 18.8 145.019 20.852 144.767 24.2L151.679 24.2C151.571 20.276 150.347 18.8 148.583 18.8ZM170.072 33.668C170.936 33.668 171.8 33.272 172.736 32.372L172.736 25.46C168.992 27.08 167.948 28.7 167.948 30.932C167.948 32.876 168.884 33.668 170.072 33.668ZM175.868 35.396C174.392 35.396 173.204 34.568 172.844 32.948C171.368 34.712 169.712 35.504 167.912 35.504C165.68 35.504 163.808 34.064 163.808 31.76C163.808 29.456 165.428 27.332 172.736 24.92L172.736 22.4C172.736 19.736 171.98 18.656 170.54 18.656C169.352 18.656 168.776 19.448 168.416 21.68C168.2 23.012 167.444 23.804 166.364 23.804C165.248 23.804 164.528 23.012 164.528 21.932C164.528 19.916 166.832 18.152 170.648 18.152C174.824 18.152 176.66 20.06 176.66 23.624L176.66 31.184C176.66 32.876 177.056 33.56 177.884 33.56C178.568 33.56 179.036 33.128 179.648 32.192L179.972 32.408C178.712 34.604 177.344 35.396 175.868 35.396ZM194.823 32.66C196.119 32.66 197.235 32.012 197.847 30.968L197.847 22.292C197.271 19.52 195.723 18.692 194.463 18.692C192.411 18.692 190.467 20.888 190.467 25.496C190.467 29.888 192.231 32.66 194.823 32.66ZM197.955 35.36L197.955 31.616C197.127 33.38 195.111 35.504 192.627 35.504C189.495 35.504 186.795 32.228 186.795 27.62C186.795 22.148 190.647 18.152 194.571 18.152C195.795 18.152 196.983 18.512 197.847 19.304L197.847 13.112C197.847 10.736 196.623 10.16 195.003 10.232L195.003 9.90796L201.483 7.99996L201.771 8.10796L201.771 31.256C201.771 33.632 202.743 34.388 204.435 34.316L204.435 34.64L198.243 35.468L197.955 35.36Z" fill="white"/>
<path d="M15.2368 21.2552C17.7605 21.2552 19.7447 36.9808 23.2608 35.8989C23.2608 35.8989 24.2641 35.8989 24.9737 33.0138C25.3023 31.678 24.7771 30.3135 24.7771 30.3135C24.5259 29.5597 23.1459 25.4839 21.1871 22.0236C19.6317 19.2758 18.1817 17.5 15.5 17.5C13.6067 17.5 12.0688 17.5019 11 19.5C9.75584 21.8261 9.73708 26.0536 9.73708 28.5691C8.81747 27.4331 7.67246 24.8816 7.21265 22.4744C6.76186 19.3188 7.21265 14.7929 7.21265 11.6554C7.21265 5.34437 7.38395 2.18884 5.40949 2.18884C2.56952 2.18884 1.5738e-05 4.92964 1.64237e-05 8.85151C1.78472e-05 16.9928 4.59808 35.98 8.08719 35.98C11.2517 35.98 13.1991 33.7351 13.1991 31.5984C13.1991 30.7599 12.6311 28.3256 12.6311 25.3775C12.6311 22.7809 13.9536 21.2552 15.2368 21.2552Z" fill="white"/>
</svg>
